# xmcd
#
# Track frame offsets:
#	150
#	21867
#	41731
#	61639
#	84700
#	110584
#	129984
#	151082
#	180817
#	209967
#	235800
#	277283
#	302960
#	326285
#
# Disc length: 4653 seconds
#
# Revision: 2
# Processed by: cddbd v1.5.2PL0 Copyright (c) Steve Scherf et al.
# Submitted via: EZCDAudioConverter 8.0.2.1
#
DISCID=be122b0e
DTITLE=Hoàng Oanh - Chuyến Đò Vĩ Tuyến
DYEAR=2012
DGENRE=Country
TTITLE0=Hoàng Oanh - Nhớ nhau hoài, Người ngoài phố
TTITLE1=Hoàng Oanh - Chiều cuối tuần
TTITLE2=Hoàng Oanh, Trung Chỉnh - Mùa xuân trên cao, Tâm sự ngày xuân
TTITLE3=Hoàng Oanh, Trung Chỉnh - Những đốm mắt hỏa châu
TTITLE4=Hoàng Oanh, Trung Chỉnh - Chuyến đi về sáng
TTITLE5=Hoàng Oanh - Chuyến Đò Vĩ Tuyến
TTITLE6=Hoàng Oanh - Câu chuyện đầu năm
TTITLE7=Hoàng Oanh - Anh đi chiến dịch
TTITLE8=Hoàng Oanh - Những con đường trắng
TTITLE9=Hoàng Oanh - Nửa đêm biên giới
TTITLE10=Hoàng Oanh - Chuyện một chiếc cầu đã gãy
TTITLE11=Hoàng Oanh - Hoa xuân
TTITLE12=Hoàng Oanh - Trộm nhìn nhau
TTITLE13=Hoàng Oanh - Ngày trở về
EXTD=
EXTT0=
EXTT1=
EXTT2=
EXTT3=
EXTT4=
EXTT5=
EXTT6=
EXTT7=
EXTT8=
EXTT9=
EXTT10=
EXTT11=
EXTT12=
EXTT13=
PLAYORDER=
